# xmcd
#
# Track frame offsets:
#	150
#	9275
#	22125
#	33900
#	43842
#	54535
#	68367
#	78550
#	92272
#	101247
#	118125
#	128047
#
# Disc length: 1908 seconds
#
# Revision: 1
# Processed by: cddbd v1.5.1PL0 Copyright (c) Steve Scherf et al.
# Submitted via: dBpowerAMP V4.0
#
DISCID=9307720c
DTITLE=Patsy Cline - Queen of Country
DYEAR=1900
DGENRE=Country
TTITLE0=Walkin' After Midnight
TTITLE1=I Fall to Pieces
TTITLE2=Sweet Dreams of You
TTITLE3=Heartaches
TTITLE4=Your Cheatin' Heart
TTITLE5=You Belong to Me
TTITLE6=Strange
TTITLE7=She's Got You
TTITLE8=Anytime
TTITLE9=Faded Love
TTITLE10=Lovin' in Vain
TTITLE11=The Wayward Wind
EXTD="A Tribute To The Masters" series
EXTT0=
EXTT1=
EXTT2=
EXTT3=
EXTT4=
EXTT5=
EXTT6=
EXTT7=
EXTT8=
EXTT9=
EXTT10=
EXTT11=
PLAYORDER=
